# Blender v2.83.5 OBJ File: ''
# www.blender.org
mtllib pointingplayer.mtl
o core
g core
v -0.700000 1.200000 -0.100000
v -0.700000 1.180491 -0.098079
v -0.700000 1.161732 -0.092388
v -0.700000 1.144443 -0.083147
v -0.700000 1.129289 -0.070711
v -0.700000 1.116853 -0.055557
v -0.700000 1.107612 -0.038268
v -0.700000 1.101922 -0.019509
v -0.700000 1.100000 -0.000000
v -0.700000 1.101922 0.019509
v -0.700000 1.107612 0.038268
v -0.700000 1.116853 0.055557
v -0.700000 1.129289 0.070711
v -0.700000 1.144443 0.083147
v -0.700000 1.161732 0.092388
v -0.700000 1.180491 0.098079
v -0.700000 1.200000 0.100000
v -0.700000 1.219509 0.098079
v -0.700000 1.238268 0.092388
v -0.700000 1.255557 0.083147
v -0.700000 1.270711 0.070711
v -0.700000 1.283147 0.055557
v -0.700000 1.292388 0.038268
v 0.300000 1.200000 0.000000
v -0.700000 1.298079 0.019509
v -0.700000 1.300000 -0.000000
v -0.700000 1.298079 -0.019509
v -0.700000 1.292388 -0.038268
v -0.700000 1.283147 -0.055557
v -0.700000 1.270711 -0.070711
v -0.700000 1.255557 -0.083147
v -0.700000 1.238268 -0.092388
v -0.700000 1.219509 -0.098079
v -0.000000 0.000000 -0.500000
v -0.000000 1.800000 -0.500000
v 0.097545 0.000000 -0.490393
v 0.097545 1.800000 -0.490393
v 0.191342 0.000000 -0.461940
v 0.191342 1.800000 -0.461940
v 0.277785 0.000000 -0.415735
v 0.277785 1.800000 -0.415735
v 0.353553 0.000000 -0.353553
v 0.353553 1.800000 -0.353553
v 0.415735 0.000000 -0.277785
v 0.415735 1.800000 -0.277785
v 0.461940 0.000000 -0.191342
v 0.461940 1.800000 -0.191342
v 0.490393 0.000000 -0.097545
v 0.490393 1.800000 -0.097545
v 0.500000 0.000000 -0.000000
v 0.500000 1.800000 -0.000000
v 0.490393 0.000000 0.097545
v 0.490393 1.800000 0.097545
v 0.461940 0.000000 0.191342
v 0.461940 1.800000 0.191342
v 0.415735 0.000000 0.277785
v 0.415735 1.800000 0.277785
v 0.353553 0.000000 0.353553
v 0.353553 1.800000 0.353553
v 0.277785 0.000000 0.415735
v 0.277785 1.800000 0.415735
v 0.191342 0.000000 0.461940
v 0.191342 1.800000 0.461940
v 0.097545 0.000000 0.490393
v 0.097545 1.800000 0.490393
v -0.000000 0.000000 0.500000
v -0.000000 1.800000 0.500000
v -0.097545 0.000000 0.490393
v -0.097545 1.800000 0.490393
v -0.191342 0.000000 0.461940
v -0.191342 1.800000 0.461940
v -0.277785 0.000000 0.415735
v -0.277785 1.800000 0.415735
v -0.353554 0.000000 0.353553
v -0.353554 1.800000 0.353553
v -0.415735 0.000000 0.277785
v -0.415735 1.800000 0.277785
v -0.461940 0.000000 0.191341
v -0.461940 1.800000 0.191341
v -0.490393 0.000000 0.097545
v -0.490393 1.800000 0.097545
v -0.500000 0.000000 -0.000000
v -0.500000 1.800000 -0.000000
v -0.490393 0.000000 -0.097546
v -0.490393 1.800000 -0.097546
v -0.461940 0.000000 -0.191342
v -0.461940 1.800000 -0.191342
v -0.415734 0.000000 -0.277786
v -0.415734 1.800000 -0.277786
v -0.353553 0.000000 -0.353554
v -0.353553 1.800000 -0.353554
v -0.277785 0.000000 -0.415735
v -0.277785 1.800000 -0.415735
v -0.191341 0.000000 -0.461940
v -0.191341 1.800000 -0.461940
v -0.097544 0.000000 -0.490393
v -0.097544 1.800000 -0.490393
vt 0.250000 0.490000
vt 0.250000 0.250000
vt 0.296822 0.485388
vt 0.341844 0.471731
vt 0.383337 0.449553
vt 0.419706 0.419706
vt 0.449553 0.383337
vt 0.471731 0.341844
vt 0.485388 0.296822
vt 0.490000 0.250000
vt 0.485388 0.203178
vt 0.471731 0.158156
vt 0.449553 0.116663
vt 0.419706 0.080294
vt 0.383337 0.050447
vt 0.341844 0.028269
vt 0.296822 0.014612
vt 0.250000 0.010000
vt 0.203178 0.014612
vt 0.158156 0.028269
vt 0.116663 0.050447
vt 0.080294 0.080294
vt 0.050447 0.116663
vt 0.028269 0.158156
vt 0.014611 0.203179
vt 0.010000 0.250000
vt 0.014612 0.296822
vt 0.028269 0.341844
vt 0.050447 0.383337
vt 0.080295 0.419706
vt 0.116663 0.449553
vt 0.158156 0.471731
vt 0.203179 0.485389
vt 0.750000 0.490000
vt 0.796822 0.485388
vt 0.841844 0.471731
vt 0.883337 0.449553
vt 0.919706 0.419706
vt 0.949553 0.383337
vt 0.971731 0.341844
vt 0.985388 0.296822
vt 0.990000 0.250000
vt 0.985388 0.203178
vt 0.971731 0.158156
vt 0.949553 0.116663
vt 0.919706 0.080294
vt 0.883337 0.050447
vt 0.841844 0.028269
vt 0.796822 0.014612
vt 0.750000 0.010000
vt 0.703178 0.014612
vt 0.658156 0.028269
vt 0.616663 0.050447
vt 0.580294 0.080294
vt 0.550447 0.116663
vt 0.528269 0.158156
vt 0.514611 0.203179
vt 0.510000 0.250000
vt 0.514612 0.296822
vt 0.528269 0.341844
vt 0.550447 0.383337
vt 0.580295 0.419706
vt 0.616663 0.449553
vt 0.658156 0.471731
vt 0.703179 0.485389
vt 1.000000 0.500000
vt 1.000000 1.000000
vt 0.968750 1.000000
vt 0.968750 0.500000
vt 0.937500 1.000000
vt 0.937500 0.500000
vt 0.906250 1.000000
vt 0.906250 0.500000
vt 0.875000 1.000000
vt 0.875000 0.500000
vt 0.843750 1.000000
vt 0.843750 0.500000
vt 0.812500 1.000000
vt 0.812500 0.500000
vt 0.781250 1.000000
vt 0.781250 0.500000
vt 0.750000 1.000000
vt 0.750000 0.500000
vt 0.718750 1.000000
vt 0.718750 0.500000
vt 0.687500 1.000000
vt 0.687500 0.500000
vt 0.656250 1.000000
vt 0.656250 0.500000
vt 0.625000 1.000000
vt 0.625000 0.500000
vt 0.593750 1.000000
vt 0.593750 0.500000
vt 0.562500 1.000000
vt 0.562500 0.500000
vt 0.531250 1.000000
vt 0.531250 0.500000
vt 0.500000 1.000000
vt 0.500000 0.500000
vt 0.468750 1.000000
vt 0.468750 0.500000
vt 0.437500 1.000000
vt 0.437500 0.500000
vt 0.406250 1.000000
vt 0.406250 0.500000
vt 0.375000 1.000000
vt 0.375000 0.500000
vt 0.343750 1.000000
vt 0.343750 0.500000
vt 0.312500 1.000000
vt 0.312500 0.500000
vt 0.281250 1.000000
vt 0.281250 0.500000
vt 0.250000 1.000000
vt 0.250000 0.500000
vt 0.218750 1.000000
vt 0.218750 0.500000
vt 0.187500 1.000000
vt 0.187500 0.500000
vt 0.156250 1.000000
vt 0.156250 0.500000
vt 0.125000 1.000000
vt 0.125000 0.500000
vt 0.093750 1.000000
vt 0.093750 0.500000
vt 0.062500 1.000000
vt 0.062500 0.500000
vt 0.296822 0.485388
vt 0.250000 0.490000
vt 0.203179 0.485389
vt 0.158156 0.471731
vt 0.116663 0.449553
vt 0.080295 0.419706
vt 0.050447 0.383337
vt 0.028269 0.341844
vt 0.014612 0.296822
vt 0.010000 0.250000
vt 0.014611 0.203179
vt 0.028269 0.158156
vt 0.050447 0.116663
vt 0.080294 0.080294
vt 0.116663 0.050447
vt 0.158156 0.028269
vt 0.203178 0.014612
vt 0.250000 0.010000
vt 0.296822 0.014612
vt 0.341844 0.028269
vt 0.383337 0.050447
vt 0.419706 0.080294
vt 0.449553 0.116663
vt 0.471731 0.158156
vt 0.485388 0.203178
vt 0.490000 0.250000
vt 0.485388 0.296822
vt 0.471731 0.341844
vt 0.449553 0.383337
vt 0.419706 0.419706
vt 0.383337 0.449553
vt 0.341844 0.471731
vt 0.031250 1.000000
vt 0.031250 0.500000
vt 0.000000 1.000000
vt 0.000000 0.500000
vt 0.750000 0.490000
vt 0.796822 0.485388
vt 0.841844 0.471731
vt 0.883337 0.449553
vt 0.919706 0.419706
vt 0.949553 0.383337
vt 0.971731 0.341844
vt 0.985388 0.296822
vt 0.990000 0.250000
vt 0.985388 0.203178
vt 0.971731 0.158156
vt 0.949553 0.116663
vt 0.919706 0.080294
vt 0.883337 0.050447
vt 0.841844 0.028269
vt 0.796822 0.014612
vt 0.750000 0.010000
vt 0.703178 0.014612
vt 0.658156 0.028269
vt 0.616663 0.050447
vt 0.580294 0.080294
vt 0.550447 0.116663
vt 0.528269 0.158156
vt 0.514611 0.203179
vt 0.510000 0.250000
vt 0.514612 0.296822
vt 0.528269 0.341844
vt 0.550447 0.383337
vt 0.580295 0.419706
vt 0.616663 0.449553
vt 0.658156 0.471731
vt 0.703179 0.485389
vn 0.0990 -0.0975 -0.9903
vn 0.0990 -0.2889 -0.9522
vn 0.0990 -0.4691 -0.8776
vn 0.0990 -0.6313 -0.7692
vn 0.0990 -0.7692 -0.6313
vn 0.0990 -0.8776 -0.4691
vn 0.0990 -0.9522 -0.2889
vn 0.0990 -0.9903 -0.0975
vn 0.0990 -0.9903 0.0975
vn 0.0990 -0.9522 0.2889
vn 0.0990 -0.8776 0.4691
vn 0.0990 -0.7692 0.6313
vn 0.0990 -0.6313 0.7692
vn 0.0990 -0.4691 0.8776
vn 0.0990 -0.2889 0.9522
vn 0.0990 -0.0975 0.9903
vn 0.0990 0.0975 0.9903
vn 0.0990 0.2889 0.9522
vn 0.0990 0.4691 0.8776
vn 0.0990 0.6313 0.7692
vn 0.0990 0.7692 0.6313
vn 0.0990 0.8776 0.4691
vn 0.0990 0.9522 0.2889
vn 0.0990 0.9903 0.0975
vn 0.0990 0.9903 -0.0975
vn 0.0990 0.9522 -0.2889
vn 0.0990 0.8776 -0.4691
vn 0.0990 0.7692 -0.6313
vn 0.0990 0.6313 -0.7692
vn 0.0990 0.4691 -0.8776
vn 0.0990 0.2889 -0.9522
vn 0.0990 0.0975 -0.9903
vn -1.0000 -0.0000 0.0000
vn 0.0980 -0.0000 -0.9952
vn 0.2903 0.0000 -0.9569
vn 0.4714 0.0000 -0.8819
vn 0.6344 0.0000 -0.7730
vn 0.7730 0.0000 -0.6344
vn 0.8819 0.0000 -0.4714
vn 0.9569 0.0000 -0.2903
vn 0.9952 0.0000 -0.0980
vn 0.9952 0.0000 0.0980
vn 0.9569 0.0000 0.2903
vn 0.8819 0.0000 0.4714
vn 0.7730 0.0000 0.6344
vn 0.6344 0.0000 0.7730
vn 0.4714 0.0000 0.8819
vn 0.2903 -0.0000 0.9569
vn 0.0980 -0.0000 0.9952
vn -0.0980 0.0000 0.9952
vn -0.2903 0.0000 0.9569
vn -0.4714 0.0000 0.8819
vn -0.6344 0.0000 0.7730
vn -0.7730 0.0000 0.6344
vn -0.8819 0.0000 0.4714
vn -0.9569 0.0000 0.2903
vn -0.9952 -0.0000 0.0980
vn -0.9952 0.0000 -0.0980
vn -0.9569 0.0000 -0.2903
vn -0.8819 0.0000 -0.4714
vn -0.7730 0.0000 -0.6344
vn -0.6344 0.0000 -0.7730
vn -0.4714 0.0000 -0.8819
vn 0.0000 1.0000 -0.0000
vn -0.2903 0.0000 -0.9569
vn -0.0980 0.0000 -0.9952
vn 0.0000 -1.0000 0.0000
usemtl icosahedron_default
s off
f 1/1/1 24/2/1 2/3/1
f 2/3/2 24/2/2 3/4/2
f 3/4/3 24/2/3 4/5/3
f 4/5/4 24/2/4 5/6/4
f 5/6/5 24/2/5 6/7/5
f 6/7/6 24/2/6 7/8/6
f 7/8/7 24/2/7 8/9/7
f 8/9/8 24/2/8 9/10/8
f 9/10/9 24/2/9 10/11/9
f 10/11/10 24/2/10 11/12/10
f 11/12/11 24/2/11 12/13/11
f 12/13/12 24/2/12 13/14/12
f 13/14/13 24/2/13 14/15/13
f 14/15/14 24/2/14 15/16/14
f 15/16/15 24/2/15 16/17/15
f 16/17/16 24/2/16 17/18/16
f 17/18/17 24/2/17 18/19/17
f 18/19/18 24/2/18 19/20/18
f 19/20/19 24/2/19 20/21/19
f 20/21/20 24/2/20 21/22/20
f 21/22/21 24/2/21 22/23/21
f 22/23/22 24/2/22 23/24/22
f 23/24/23 24/2/23 25/25/23
f 25/25/24 24/2/24 26/26/24
f 26/26/25 24/2/25 27/27/25
f 27/27/26 24/2/26 28/28/26
f 28/28/27 24/2/27 29/29/27
f 29/29/28 24/2/28 30/30/28
f 30/30/29 24/2/29 31/31/29
f 31/31/30 24/2/30 32/32/30
f 32/32/31 24/2/31 33/33/31
f 33/33/32 24/2/32 1/1/32
f 1/34/33 2/35/33 3/36/33 4/37/33 5/38/33 6/39/33 7/40/33 8/41/33 9/42/33 10/43/33 11/44/33 12/45/33 13/46/33 14/47/33 15/48/33 16/49/33 17/50/33 18/51/33 19/52/33 20/53/33 21/54/33 22/55/33 23/56/33 25/57/33 26/58/33 27/59/33 28/60/33 29/61/33 30/62/33 31/63/33 32/64/33 33/65/33
f 34/66/34 35/67/34 37/68/34 36/69/34
f 36/69/35 37/68/35 39/70/35 38/71/35
f 38/71/36 39/70/36 41/72/36 40/73/36
f 40/73/37 41/72/37 43/74/37 42/75/37
f 42/75/38 43/74/38 45/76/38 44/77/38
f 44/77/39 45/76/39 47/78/39 46/79/39
f 46/79/40 47/78/40 49/80/40 48/81/40
f 48/81/41 49/80/41 51/82/41 50/83/41
f 50/83/42 51/82/42 53/84/42 52/85/42
f 52/85/43 53/84/43 55/86/43 54/87/43
f 54/87/44 55/86/44 57/88/44 56/89/44
f 56/89/45 57/88/45 59/90/45 58/91/45
f 58/91/46 59/90/46 61/92/46 60/93/46
f 60/93/47 61/92/47 63/94/47 62/95/47
f 62/95/48 63/94/48 65/96/48 64/97/48
f 64/97/49 65/96/49 67/98/49 66/99/49
f 66/99/50 67/98/50 69/100/50 68/101/50
f 68/101/51 69/100/51 71/102/51 70/103/51
f 70/103/52 71/102/52 73/104/52 72/105/52
f 72/105/53 73/104/53 75/106/53 74/107/53
f 74/107/54 75/106/54 77/108/54 76/109/54
f 76/109/55 77/108/55 79/110/55 78/111/55
f 78/111/56 79/110/56 81/112/56 80/113/56
f 80/113/57 81/112/57 83/114/57 82/115/57
f 82/115/58 83/114/58 85/116/58 84/117/58
f 84/117/59 85/116/59 87/118/59 86/119/59
f 86/119/60 87/118/60 89/120/60 88/121/60
f 88/121/61 89/120/61 91/122/61 90/123/61
f 90/123/62 91/122/62 93/124/62 92/125/62
f 92/125/63 93/124/63 95/126/63 94/127/63
f 37/128/64 35/129/64 97/130/64 95/131/64 93/132/64 91/133/64 89/134/64 87/135/64 85/136/64 83/137/64 81/138/64 79/139/64 77/140/64 75/141/64 73/142/64 71/143/64 69/144/64 67/145/64 65/146/64 63/147/64 61/148/64 59/149/64 57/150/64 55/151/64 53/152/64 51/153/64 49/154/64 47/155/64 45/156/64 43/157/64 41/158/64 39/159/64
f 94/127/65 95/126/65 97/160/65 96/161/65
f 96/161/66 97/160/66 35/162/66 34/163/66
f 34/164/67 36/165/67 38/166/67 40/167/67 42/168/67 44/169/67 46/170/67 48/171/67 50/172/67 52/173/67 54/174/67 56/175/67 58/176/67 60/177/67 62/178/67 64/179/67 66/180/67 68/181/67 70/182/67 72/183/67 74/184/67 76/185/67 78/186/67 80/187/67 82/188/67 84/189/67 86/190/67 88/191/67 90/192/67 92/193/67 94/194/67 96/195/67
o silhouette
g silhouette
v 0.000000 -0.050000 -0.525000
v 0.000000 1.850000 -0.525000
v 0.102422 -0.050000 -0.514912
v 0.102422 1.850000 -0.514912
v 0.200909 -0.050000 -0.485037
v 0.200909 1.850000 -0.485037
v 0.291674 -0.050000 -0.436522
v 0.291674 1.850000 -0.436522
v 0.371231 -0.050000 -0.371231
v 0.371231 1.850000 -0.371231
v 0.436522 -0.050000 -0.291674
v 0.436522 1.850000 -0.291674
v 0.485037 -0.050000 -0.200909
v 0.485037 1.850000 -0.200909
v 0.514912 -0.050000 -0.102422
v 0.514912 1.850000 -0.102422
v 0.525000 -0.050000 -0.000000
v 0.525000 1.850000 -0.000000
v 0.514912 -0.050000 0.102422
v 0.514912 1.850000 0.102422
v 0.485037 -0.050000 0.200909
v 0.485037 1.850000 0.200909
v 0.436522 -0.050000 0.291674
v 0.436522 1.850000 0.291674
v 0.371231 -0.050000 0.371231
v 0.371231 1.850000 0.371231
v 0.291674 -0.050000 0.436522
v 0.291674 1.850000 0.436522
v 0.200909 -0.050000 0.485037
v 0.200909 1.850000 0.485037
v 0.102422 -0.050000 0.514912
v 0.102422 1.850000 0.514912
v -0.000000 -0.050000 0.525000
v -0.000000 1.850000 0.525000
v -0.102423 -0.050000 0.514912
v -0.102423 1.850000 0.514912
v -0.200909 -0.050000 0.485037
v -0.200909 1.850000 0.485037
v -0.291675 -0.050000 0.436521
v -0.291675 1.850000 0.436521
v -0.371231 -0.050000 0.371231
v -0.371231 1.850000 0.371231
v -0.436522 -0.050000 0.291674
v -0.436522 1.850000 0.291674
v -0.485037 -0.050000 0.200908
v -0.485037 1.850000 0.200908
v -0.514912 -0.050000 0.102422
v -0.514912 1.850000 0.102422
v -0.525000 -0.050000 -0.000001
v -0.525000 1.850000 -0.000001
v -0.514912 -0.050000 -0.102423
v -0.514912 1.850000 -0.102423
v -0.485036 -0.050000 -0.200909
v -0.485036 1.850000 -0.200909
v -0.436521 -0.050000 -0.291675
v -0.436521 1.850000 -0.291675
v -0.371231 -0.050000 -0.371231
v -0.371231 1.850000 -0.371231
v -0.291674 -0.050000 -0.436522
v -0.291674 1.850000 -0.436522
v -0.200908 -0.050000 -0.485037
v -0.200908 1.850000 -0.485037
v -0.102422 -0.050000 -0.514912
v -0.102422 1.850000 -0.514912
v -0.725000 1.200000 -0.110000
v -0.725000 1.178540 -0.107886
v -0.725000 1.157905 -0.101627
v -0.725000 1.138887 -0.091462
v -0.725000 1.122218 -0.077782
v -0.725000 1.108538 -0.061113
v -0.725000 1.098373 -0.042095
v -0.725000 1.092114 -0.021460
v -0.725000 1.090000 -0.000000
v -0.725000 1.092114 0.021460
v -0.725000 1.098373 0.042095
v -0.725000 1.108538 0.061113
v -0.725000 1.122218 0.077782
v -0.725000 1.138887 0.091462
v -0.725000 1.157905 0.101627
v -0.725000 1.178540 0.107886
v -0.725000 1.200000 0.110000
v -0.725000 1.221460 0.107886
v -0.725000 1.242095 0.101627
v -0.725000 1.261113 0.091462
v -0.725000 1.277782 0.077782
v -0.725000 1.291462 0.061113
v -0.725000 1.301627 0.042095
v 0.325000 1.200000 0.000000
v -0.725000 1.307886 0.021460
v -0.725000 1.310000 -0.000000
v -0.725000 1.307886 -0.021460
v -0.725000 1.301627 -0.042095
v -0.725000 1.291462 -0.061113
v -0.725000 1.277782 -0.077782
v -0.725000 1.261113 -0.091462
v -0.725000 1.242095 -0.101627
v -0.725000 1.221460 -0.107886
vt 1.000000 0.500000
vt 0.968750 0.500000
vt 0.968750 1.000000
vt 1.000000 1.000000
vt 0.937500 0.500000
vt 0.937500 1.000000
vt 0.906250 0.500000
vt 0.906250 1.000000
vt 0.875000 0.500000
vt 0.875000 1.000000
vt 0.843750 0.500000
vt 0.843750 1.000000
vt 0.812500 0.500000
vt 0.812500 1.000000
vt 0.781250 0.500000
vt 0.781250 1.000000
vt 0.750000 0.500000
vt 0.750000 1.000000
vt 0.718750 0.500000
vt 0.718750 1.000000
vt 0.687500 0.500000
vt 0.687500 1.000000
vt 0.656250 0.500000
vt 0.656250 1.000000
vt 0.625000 0.500000
vt 0.625000 1.000000
vt 0.593750 0.500000
vt 0.593750 1.000000
vt 0.562500 0.500000
vt 0.562500 1.000000
vt 0.531250 0.500000
vt 0.531250 1.000000
vt 0.500000 0.500000
vt 0.500000 1.000000
vt 0.468750 0.500000
vt 0.468750 1.000000
vt 0.437500 0.500000
vt 0.437500 1.000000
vt 0.406250 0.500000
vt 0.406250 1.000000
vt 0.375000 0.500000
vt 0.375000 1.000000
vt 0.343750 0.500000
vt 0.343750 1.000000
vt 0.312500 0.500000
vt 0.312500 1.000000
vt 0.281250 0.500000
vt 0.281250 1.000000
vt 0.250000 0.500000
vt 0.250000 1.000000
vt 0.218750 0.500000
vt 0.218750 1.000000
vt 0.187500 0.500000
vt 0.187500 1.000000
vt 0.156250 0.500000
vt 0.156250 1.000000
vt 0.125000 0.500000
vt 0.125000 1.000000
vt 0.093750 0.500000
vt 0.093750 1.000000
vt 0.062500 0.500000
vt 0.062500 1.000000
vt 0.296822 0.485388
vt 0.341844 0.471731
vt 0.383337 0.449553
vt 0.419706 0.419706
vt 0.449553 0.383337
vt 0.471731 0.341844
vt 0.485388 0.296822
vt 0.490000 0.250000
vt 0.485388 0.203178
vt 0.471731 0.158156
vt 0.449553 0.116663
vt 0.419706 0.080294
vt 0.383337 0.050447
vt 0.341844 0.028269
vt 0.296822 0.014612
vt 0.250000 0.010000
vt 0.203178 0.014612
vt 0.158156 0.028269
vt 0.116663 0.050447
vt 0.080294 0.080294
vt 0.050447 0.116663
vt 0.028269 0.158156
vt 0.014611 0.203179
vt 0.010000 0.250000
vt 0.014612 0.296822
vt 0.028269 0.341844
vt 0.050447 0.383337
vt 0.080295 0.419706
vt 0.116663 0.449553
vt 0.158156 0.471731
vt 0.203179 0.485389
vt 0.250000 0.490000
vt 0.031250 0.500000
vt 0.031250 1.000000
vt 0.000000 0.500000
vt 0.000000 1.000000
vt 0.750000 0.490000
vt 0.703179 0.485389
vt 0.658156 0.471731
vt 0.616663 0.449553
vt 0.580295 0.419706
vt 0.550447 0.383337
vt 0.528269 0.341844
vt 0.514612 0.296822
vt 0.510000 0.250000
vt 0.514611 0.203179
vt 0.528269 0.158156
vt 0.550447 0.116663
vt 0.580294 0.080294
vt 0.616663 0.050447
vt 0.658156 0.028269
vt 0.703178 0.014612
vt 0.750000 0.010000
vt 0.796822 0.014612
vt 0.841844 0.028269
vt 0.883337 0.050447
vt 0.919706 0.080294
vt 0.949553 0.116663
vt 0.971731 0.158156
vt 0.985388 0.203178
vt 0.990000 0.250000
vt 0.985388 0.296822
vt 0.971731 0.341844
vt 0.949553 0.383337
vt 0.919706 0.419706
vt 0.883337 0.449553
vt 0.841844 0.471731
vt 0.796822 0.485388
vt 0.250000 0.490000
vt 0.250000 0.250000
vt 0.296822 0.485388
vt 0.341844 0.471731
vt 0.383337 0.449553
vt 0.419706 0.419706
vt 0.449553 0.383337
vt 0.471731 0.341844
vt 0.485388 0.296822
vt 0.490000 0.250000
vt 0.485388 0.203178
vt 0.471731 0.158156
vt 0.449553 0.116663
vt 0.419706 0.080294
vt 0.383337 0.050447
vt 0.341844 0.028269
vt 0.296822 0.014612
vt 0.250000 0.010000
vt 0.203178 0.014612
vt 0.158156 0.028269
vt 0.116663 0.050447
vt 0.080294 0.080294
vt 0.050447 0.116663
vt 0.028269 0.158156
vt 0.014611 0.203179
vt 0.010000 0.250000
vt 0.014612 0.296822
vt 0.028269 0.341844
vt 0.050447 0.383337
vt 0.080295 0.419706
vt 0.116663 0.449553
vt 0.158156 0.471731
vt 0.203179 0.485389
vt 0.750000 0.490000
vt 0.796822 0.485388
vt 0.841844 0.471731
vt 0.883337 0.449553
vt 0.919706 0.419706
vt 0.949553 0.383337
vt 0.971731 0.341844
vt 0.985388 0.296822
vt 0.990000 0.250000
vt 0.985388 0.203178
vt 0.971731 0.158156
vt 0.949553 0.116663
vt 0.919706 0.080294
vt 0.883337 0.050447
vt 0.841844 0.028269
vt 0.796822 0.014612
vt 0.750000 0.010000
vt 0.703178 0.014612
vt 0.658156 0.028269
vt 0.616663 0.050447
vt 0.580294 0.080294
vt 0.550447 0.116663
vt 0.528269 0.158156
vt 0.514611 0.203179
vt 0.510000 0.250000
vt 0.514612 0.296822
vt 0.528269 0.341844
vt 0.550447 0.383337
vt 0.580295 0.419706
vt 0.616663 0.449553
vt 0.658156 0.471731
vt 0.703179 0.485389
vn -0.0980 0.0000 0.9952
vn -0.2903 0.0000 0.9569
vn -0.4714 0.0000 0.8819
vn -0.6344 0.0000 0.7730
vn -0.7730 0.0000 0.6344
vn -0.8819 0.0000 0.4714
vn -0.9569 0.0000 0.2903
vn -0.9952 0.0000 0.0980
vn -0.9952 0.0000 -0.0980
vn -0.9569 0.0000 -0.2903
vn -0.8819 0.0000 -0.4714
vn -0.7730 0.0000 -0.6344
vn -0.6344 0.0000 -0.7730
vn -0.4714 0.0000 -0.8819
vn -0.2903 0.0000 -0.9569
vn -0.0980 0.0000 -0.9952
vn 0.0980 0.0000 -0.9952
vn 0.2903 0.0000 -0.9569
vn 0.4714 0.0000 -0.8819
vn 0.6344 0.0000 -0.7730
vn 0.7730 0.0000 -0.6344
vn 0.8819 0.0000 -0.4714
vn 0.9569 0.0000 -0.2903
vn 0.9952 0.0000 -0.0980
vn 0.9952 0.0000 0.0980
vn 0.9569 0.0000 0.2903
vn 0.8819 0.0000 0.4714
vn 0.7730 0.0000 0.6344
vn 0.6344 0.0000 0.7730
vn 0.4714 0.0000 0.8819
vn 0.0000 -1.0000 0.0000
vn 0.2903 0.0000 0.9569
vn 0.0980 0.0000 0.9952
vn 0.0000 1.0000 0.0000
vn 0.1037 -0.0975 -0.9898
vn 0.1037 -0.2887 -0.9518
vn 0.1037 -0.4689 -0.8772
vn 0.1037 -0.6310 -0.7688
vn 0.1037 -0.7688 -0.6310
vn 0.1037 -0.8772 -0.4689
vn 0.1037 -0.9518 -0.2887
vn 0.1037 -0.9898 -0.0975
vn 0.1037 -0.9898 0.0975
vn 0.1037 -0.9518 0.2887
vn 0.1037 -0.8772 0.4689
vn 0.1037 -0.7688 0.6310
vn 0.1037 -0.6310 0.7688
vn 0.1037 -0.4689 0.8772
vn 0.1037 -0.2887 0.9518
vn 0.1037 -0.0975 0.9898
vn 0.1037 0.0975 0.9898
vn 0.1037 0.2887 0.9518
vn 0.1037 0.4689 0.8772
vn 0.1037 0.6310 0.7688
vn 0.1037 0.7688 0.6310
vn 0.1037 0.8772 0.4689
vn 0.1037 0.9518 0.2887
vn 0.1037 0.9898 0.0975
vn 0.1037 0.9898 -0.0975
vn 0.1037 0.9518 -0.2887
vn 0.1037 0.8772 -0.4689
vn 0.1037 0.7688 -0.6310
vn 0.1037 0.6310 -0.7688
vn 0.1037 0.4689 -0.8772
vn 0.1037 0.2887 -0.9518
vn 0.1037 0.0975 -0.9898
vn -1.0000 -0.0000 0.0000
usemtl Silhouette
s off
f 98/196/68 100/197/68 101/198/68 99/199/68
f 100/197/69 102/200/69 103/201/69 101/198/69
f 102/200/70 104/202/70 105/203/70 103/201/70
f 104/202/71 106/204/71 107/205/71 105/203/71
f 106/204/72 108/206/72 109/207/72 107/205/72
f 108/206/73 110/208/73 111/209/73 109/207/73
f 110/208/74 112/210/74 113/211/74 111/209/74
f 112/210/75 114/212/75 115/213/75 113/211/75
f 114/212/76 116/214/76 117/215/76 115/213/76
f 116/214/77 118/216/77 119/217/77 117/215/77
f 118/216/78 120/218/78 121/219/78 119/217/78
f 120/218/79 122/220/79 123/221/79 121/219/79
f 122/220/80 124/222/80 125/223/80 123/221/80
f 124/222/81 126/224/81 127/225/81 125/223/81
f 126/224/82 128/226/82 129/227/82 127/225/82
f 128/226/83 130/228/83 131/229/83 129/227/83
f 130/228/84 132/230/84 133/231/84 131/229/84
f 132/230/85 134/232/85 135/233/85 133/231/85
f 134/232/86 136/234/86 137/235/86 135/233/86
f 136/234/87 138/236/87 139/237/87 137/235/87
f 138/236/88 140/238/88 141/239/88 139/237/88
f 140/238/89 142/240/89 143/241/89 141/239/89
f 142/240/90 144/242/90 145/243/90 143/241/90
f 144/242/91 146/244/91 147/245/91 145/243/91
f 146/244/92 148/246/92 149/247/92 147/245/92
f 148/246/93 150/248/93 151/249/93 149/247/93
f 150/248/94 152/250/94 153/251/94 151/249/94
f 152/250/95 154/252/95 155/253/95 153/251/95
f 154/252/96 156/254/96 157/255/96 155/253/96
f 156/254/97 158/256/97 159/257/97 157/255/97
f 101/258/98 103/259/98 105/260/98 107/261/98 109/262/98 111/263/98 113/264/98 115/265/98 117/266/98 119/267/98 121/268/98 123/269/98 125/270/98 127/271/98 129/272/98 131/273/98 133/274/98 135/275/98 137/276/98 139/277/98 141/278/98 143/279/98 145/280/98 147/281/98 149/282/98 151/283/98 153/284/98 155/285/98 157/286/98 159/287/98 161/288/98 99/289/98
f 158/256/99 160/290/99 161/291/99 159/257/99
f 160/290/100 98/292/100 99/293/100 161/291/100
f 98/294/101 160/295/101 158/296/101 156/297/101 154/298/101 152/299/101 150/300/101 148/301/101 146/302/101 144/303/101 142/304/101 140/305/101 138/306/101 136/307/101 134/308/101 132/309/101 130/310/101 128/311/101 126/312/101 124/313/101 122/314/101 120/315/101 118/316/101 116/317/101 114/318/101 112/319/101 110/320/101 108/321/101 106/322/101 104/323/101 102/324/101 100/325/101
f 162/326/102 185/327/102 163/328/102
f 163/328/103 185/327/103 164/329/103
f 164/329/104 185/327/104 165/330/104
f 165/330/105 185/327/105 166/331/105
f 166/331/106 185/327/106 167/332/106
f 167/332/107 185/327/107 168/333/107
f 168/333/108 185/327/108 169/334/108
f 169/334/109 185/327/109 170/335/109
f 170/335/110 185/327/110 171/336/110
f 171/336/111 185/327/111 172/337/111
f 172/337/112 185/327/112 173/338/112
f 173/338/113 185/327/113 174/339/113
f 174/339/114 185/327/114 175/340/114
f 175/340/115 185/327/115 176/341/115
f 176/341/116 185/327/116 177/342/116
f 177/342/117 185/327/117 178/343/117
f 178/343/118 185/327/118 179/344/118
f 179/344/119 185/327/119 180/345/119
f 180/345/120 185/327/120 181/346/120
f 181/346/121 185/327/121 182/347/121
f 182/347/122 185/327/122 183/348/122
f 183/348/123 185/327/123 184/349/123
f 184/349/124 185/327/124 186/350/124
f 186/350/125 185/327/125 187/351/125
f 187/351/126 185/327/126 188/352/126
f 188/352/127 185/327/127 189/353/127
f 189/353/128 185/327/128 190/354/128
f 190/354/129 185/327/129 191/355/129
f 191/355/130 185/327/130 192/356/130
f 192/356/131 185/327/131 193/357/131
f 193/357/132 185/327/132 194/358/132
f 194/358/133 185/327/133 162/326/133
f 162/359/134 163/360/134 164/361/134 165/362/134 166/363/134 167/364/134 168/365/134 169/366/134 170/367/134 171/368/134 172/369/134 173/370/134 174/371/134 175/372/134 176/373/134 177/374/134 178/375/134 179/376/134 180/377/134 181/378/134 182/379/134 183/380/134 184/381/134 186/382/134 187/383/134 188/384/134 189/385/134 190/386/134 191/387/134 192/388/134 193/389/134 194/390/134
